<?xml version="1.0" standalone="no"?>
<!DOCTYPE svg PUBLIC "-//W3C//DTD SVG 20010904//EN"
 "http://www.w3.org/TR/2001/REC-SVG-20010904/DTD/svg10.dtd">
<svg version="1.0" xmlns="http://www.w3.org/2000/svg"
 width="1030.000000pt" height="1280.000000pt" viewBox="0 0 1030.000000 1280.000000"
 preserveAspectRatio="xMidYMid meet">
<g transform="translate(0.000000,1280.000000) scale(0.100000,-0.100000)"
fill="#000000" stroke="none">
<path d="M8640 12777 c-83 -28 -145 -65 -191 -114 -45 -47 -2077 -2724 -2124
-2797 -119 -186 -109 -433 24 -604 14 -19 240 -206 502 -417 513 -413 529
-428 579 -562 36 -96 43 -150 37 -287 -8 -211 -64 -392 -217 -701 -180 -363
-201 -392 -1144 -1630 -659 -864 -900 -1173 -995 -1275 -577 -617 -878 -866
-1145 -949 -81 -25 -190 -28 -262 -6 -111 33 -129 51 -519 535 -202 250 -381
470 -399 488 -17 18 -63 49 -102 68 -151 75 -323 51 -447 -65 -44 -40 -2127
-2783 -2164 -2847 -32 -58 -73 -200 -73 -254 0 -43 38 -177 67 -233 13 -27 43
-69 66 -94 34 -37 875 -667 1027 -770 163 -110 451 -204 715 -233 55 -6 128
-15 161 -20 191 -30 671 26 1029 121 1361 362 2838 1505 4300 3329 1513 1889
2493 3751 2804 5330 62 318 87 505 117 888 20 265 13 466 -32 822 -57 454
-203 901 -385 1176 -30 45 -238 294 -462 553 -441 509 -442 510 -578 551 -82
25 -107 24 -189 -3z"/>
</g>
</svg>
